<svg width="195" height="38" viewBox="0 0 195 38" fill="none" xmlns="http://www.w3.org/2000/svg">
<g clip-path="url(#clip0_1_99)">
<path d="M14.6155 33.2445C12.9069 33.2465 11.2255 32.8118 9.72759 31.9808C8.22966 31.1498 6.96381 29.9495 6.04766 28.4913C5.13151 27.0332 4.5948 25.3645 4.48739 23.6405C4.37999 21.9164 4.70538 20.1929 5.43332 18.63C6.16127 17.0672 7.26815 15.7157 8.65111 14.7013C10.0341 13.6868 11.6482 13.0423 13.3436 12.8275C15.0389 12.6128 16.7605 12.8348 18.3482 13.473C19.936 14.1112 21.3384 15.1448 22.4252 16.4777L25.8955 13.6039C23.9754 11.2511 21.3825 9.55645 18.4723 8.75226C15.562 7.94808 12.477 8.07377 9.64023 9.11211C6.80344 10.1504 4.3538 12.0506 2.62721 14.552C0.900626 17.0534 -0.0183618 20.0335 -0.00373431 23.0837C0.0108932 26.134 0.95842 29.105 2.70892 31.5893C4.45941 34.0737 6.92716 35.9497 9.77377 36.9602C12.6204 37.9706 15.7065 38.0661 18.6088 37.2334C21.5112 36.4007 24.0878 34.6807 25.9852 32.3092L22.5036 29.4751C21.5515 30.66 20.3485 31.6138 18.9833 32.2662C17.6181 32.9186 16.1255 33.2529 14.6155 33.2445Z" fill="white"/>
<path d="M169.137 8.25855C166.658 8.25819 164.22 8.89547 162.051 10.1104C159.882 11.3254 158.055 13.0781 156.741 15.2037C155.427 17.3293 154.67 19.7579 154.54 22.2611C154.41 24.7643 154.912 27.2597 155.998 29.5127C157.085 31.7657 158.721 33.7022 160.752 35.1401C162.782 36.5779 165.142 37.4698 167.607 37.7318C170.073 37.9939 172.564 37.6176 174.846 36.6382C177.128 35.6588 179.126 34.1085 180.653 32.1332L177.126 29.3388C175.946 30.8668 174.361 32.0249 172.555 32.6784C170.75 33.332 168.798 33.4543 166.926 33.0311C165.055 32.6079 163.34 31.6566 161.982 30.2876C160.624 28.9187 159.678 27.1882 159.253 25.2973H183.753V23.03C183.749 19.1128 182.207 15.3574 179.467 12.588C176.727 9.81861 173.012 8.26155 169.137 8.25855ZM159.253 20.7684C159.76 18.5003 161.015 16.474 162.812 15.0224C164.609 13.5707 166.84 12.7799 169.14 12.7799C171.44 12.7799 173.672 13.5707 175.468 15.0224C177.265 16.474 178.52 18.5003 179.027 20.7684H159.253Z" fill="white"/>
<path d="M143.601 12.4702C141.559 10.4691 138.98 9.12038 136.184 8.59248C133.389 8.06458 130.501 8.38085 127.883 9.50182C125.264 10.6228 123.03 12.4988 121.459 14.8956C119.888 17.2924 119.051 20.1039 119.051 22.9791C119.051 25.8543 119.888 28.6658 121.459 31.0626C123.03 33.4595 125.264 35.3355 127.883 36.4564C130.501 37.5774 133.389 37.8937 136.184 37.3658C138.98 36.8379 141.559 35.4892 143.601 33.4881V37.83H148.086V0H143.601V12.4702ZM133.538 33.0573C131.56 33.0595 129.627 32.4687 127.981 31.3595C126.336 30.2504 125.053 28.6728 124.295 26.8262C123.536 24.9797 123.337 22.9473 123.721 20.9861C124.106 19.0248 125.057 17.223 126.454 15.8084C127.852 14.3939 129.633 13.4302 131.572 13.0393C133.512 12.6484 135.522 12.8479 137.349 13.6125C139.177 14.3771 140.739 15.6725 141.837 17.3347C142.936 18.997 143.523 20.9514 143.523 22.9508C143.52 25.6283 142.467 28.1955 140.596 30.0898C138.724 31.9842 136.186 33.0513 133.538 33.0573Z" fill="white"/>
<path d="M79.1338 8.79146H74.6487V12.2604C72.5723 10.2683 69.9637 8.93545 67.1458 8.42673C64.3279 7.91801 61.4243 8.25578 58.7942 9.39825C56.1642 10.5407 53.9232 12.4377 52.3485 14.8546C50.7738 17.2714 49.9346 20.102 49.9346 22.9961C49.9346 25.8902 50.7738 28.7208 52.3485 31.1377C53.9232 33.5545 56.1642 35.4515 58.7942 36.594C61.4243 37.7365 64.3279 38.0742 67.1458 37.5655C69.9637 37.0568 72.5723 35.7239 74.6487 33.7318V37.8243H79.1338V24.6966C79.2684 23.567 79.2684 22.4252 79.1338 21.2956V8.79146ZM74.6487 24.3565C74.3073 26.938 73.0081 29.2918 71.0144 30.9411C69.0206 32.5903 66.4813 33.4116 63.9109 33.2387C61.3406 33.0657 58.9313 31.9114 57.1713 30.0096C55.4113 28.1077 54.4321 25.6006 54.4321 22.9961C54.4321 20.3916 55.4113 17.8845 57.1713 15.9827C58.9313 14.0808 61.3406 12.9265 63.9109 12.7536C66.4813 12.5806 69.0206 13.4019 71.0144 15.0512C73.0081 16.7004 74.3073 19.0542 74.6487 21.6357V24.3565Z" fill="white"/>
<path d="M195 0H190.521V38H195V0Z" fill="white"/>
<path d="M101.475 21.2219C95.2406 21.2219 90.4079 14.2839 90.4079 8.30957H85.9229C85.9229 15.837 91.4787 24.1807 99.2267 25.5524V37.8242H103.712V25.5524C111.465 24.175 117.021 15.837 117.021 8.30957H112.536C112.542 14.2839 107.709 21.2219 101.475 21.2219Z" fill="white"/>
<path d="M37.1921 8.2019H32.707V37.8242H37.1921V22.5766C37.1921 17.0897 43.1741 12.8329 48.3207 12.8329V8.29826C44.1815 8.3949 40.2214 10.0247 37.1921 12.8782V8.2019Z" fill="white"/>
<path d="M101.48 15.2364C103.734 15.2364 105.561 13.3889 105.561 11.1099C105.561 8.83089 103.734 6.9834 101.48 6.9834C99.2258 6.9834 97.3984 8.83089 97.3984 11.1099C97.3984 13.3889 99.2258 15.2364 101.48 15.2364Z" fill="#F6A70B"/>
</g>
<defs>
<clipPath id="clip0_1_99">
<rect width="195" height="38" fill="white"/>
</clipPath>
</defs>
</svg>
